<?xml version="1.0" encoding="utf-8"?>
<!-- Generator: Adobe Illustrator 16.2.0, SVG Export Plug-In . SVG Version: 6.00 Build 0)  -->
<!DOCTYPE svg PUBLIC "-//W3C//DTD SVG 1.1//EN" "http://www.w3.org/Graphics/SVG/1.1/DTD/svg11.dtd">
<svg version="1.1" id="Layer_1" xmlns="http://www.w3.org/2000/svg" xmlns:xlink="http://www.w3.org/1999/xlink" x="0px" y="0px"
	 width="500px" height="75px" viewBox="0 0 500 75" enable-background="new 0 0 500 75" xml:space="preserve">
<g>
	<g>
		<rect x="16.541" y="14.647" fill="#FFFFFF" width="2.183" height="43.276"/>
		<polygon fill="#FFFFFF" points="51.134,54.553 33.774,14.647 31.021,14.647 31.021,57.924 33.204,57.924 33.204,18.909 
			50.243,57.744 50.323,57.924 51.975,57.924 69.183,18.704 69.183,57.924 71.366,57.924 71.366,14.647 68.554,14.647 		"/>
		<polygon fill="#FFFFFF" points="102.604,54.553 85.244,14.647 82.49,14.647 82.49,57.924 84.672,57.924 84.672,18.909 
			101.712,57.744 101.792,57.924 103.444,57.924 120.652,18.704 120.652,57.924 122.835,57.924 122.835,14.647 120.022,14.647 		"/>
		<rect x="135.131" y="14.647" fill="#FFFFFF" width="2.183" height="43.276"/>
		<path fill="#FFFFFF" d="M165.057,40.189H178.1v12.024c-0.784,0.978-2.312,1.914-4.543,2.785c-2.306,0.899-5.045,1.356-8.141,1.356
			c-4.36,0-7.913-1.578-10.558-4.688c-2.656-3.125-4.003-7.236-4.003-12.219v-7.035c0-4.75,1.303-8.683,3.87-11.691
			c2.557-2.993,5.986-4.51,10.192-4.51c4.144,0,7.365,1.014,9.574,3.014c2.203,1.997,3.397,4.633,3.55,7.837l0.014,0.286h1.822
			l0.143-0.429l-0.001-0.052c-0.06-3.764-1.459-6.88-4.162-9.263c-2.692-2.373-6.372-3.577-10.94-3.577
			c-4.797,0-8.749,1.736-11.745,5.159c-2.986,3.411-4.5,7.88-4.5,13.285v6.976c0,5.617,1.558,10.249,4.632,13.768
			c3.083,3.53,7.158,5.32,12.111,5.32c3.735,0,6.937-0.564,9.514-1.682c2.587-1.121,4.37-2.342,5.297-3.633l0.056-0.078V37.979
			h-15.226L165.057,40.189L165.057,40.189z"/>
		<path fill="#FFFFFF" d="M219.356,54.253c-0.313-1.021-0.471-2.192-0.471-3.487v-4.017c0-2.731-0.692-5.013-2.055-6.778
			c-1.183-1.529-3.044-2.611-5.542-3.226c2.15-0.695,3.906-1.904,5.232-3.602c1.568-2.009,2.365-4.275,2.365-6.736
			c0-3.81-1.26-6.754-3.747-8.75c-2.467-1.978-6.021-2.981-10.563-2.981h-13.9v43.276h2.183V37.904h12.685
			c3.585,0,6.375,0.796,8.296,2.366c1.9,1.556,2.864,3.754,2.864,6.537v3.898c0,1.488,0.182,2.854,0.541,4.059
			c0.362,1.219,0.916,2.256,1.645,3.086l0.089,0.104h1.99v-1.168l-0.101-0.09C220.168,56.073,219.66,55.252,219.356,54.253z
			 M204.282,35.722h-11.424V16.859h11.717c4.034,0,7.101,0.83,9.117,2.469c1.998,1.622,3.011,4.004,3.011,7.079
			c0,2.633-1.006,4.866-2.991,6.635C211.716,34.82,208.543,35.722,204.282,35.722z"/>
		<path fill="#FFFFFF" d="M241.268,14.647L225.1,57.923h2.371l4.748-12.75h20.453l4.704,12.556l0.072,0.194h2.37L243.62,14.647
			H241.268z M233.028,42.99l8.821-23.641l0.598-1.816l0.624,1.827l8.789,23.63H233.028z"/>
		<polygon fill="#FFFFFF" points="257.973,16.83 273.507,16.83 273.507,57.924 275.689,57.924 275.689,16.83 291.225,16.83 
			291.225,14.647 257.973,14.647 		"/>
		<rect x="299.27" y="14.647" fill="#FFFFFF" width="2.185" height="43.276"/>
		<path fill="#FFFFFF" d="M328.148,14.032c-5.092,0-9.139,1.742-12.028,5.177c-2.875,3.421-4.334,8.091-4.334,13.881v6.391
			c0,5.813,1.468,10.486,4.364,13.896c2.909,3.426,6.967,5.162,12.057,5.162c5.07,0,9.112-1.737,12.011-5.163
			c2.89-3.411,4.353-8.087,4.353-13.896v-6.39c0-5.789-1.476-10.46-4.383-13.882C337.268,15.773,333.218,14.032,328.148,14.032z
			 M342.387,39.48c0,5.196-1.239,9.358-3.687,12.369c-2.429,2.989-5.96,4.506-10.493,4.506c-4.534,0-8.07-1.521-10.51-4.521
			c-2.454-3.017-3.699-7.174-3.699-12.354v-6.448c0-5.142,1.237-9.279,3.684-12.297c2.433-2.999,5.953-4.52,10.468-4.52
			c4.532,0,8.072,1.521,10.522,4.521c2.465,3.019,3.715,7.155,3.715,12.296V39.48L342.387,39.48z"/>
		<polygon fill="#FFFFFF" points="382.894,14.647 382.894,53.896 355.888,14.777 355.799,14.647 353.729,14.647 353.729,57.924 
			355.942,57.924 355.942,18.588 382.945,57.793 383.034,57.924 385.076,57.924 385.076,14.647 		"/>
	</g>
</g>
<g>
	<path fill="#EF4036" d="M424.454,52.345v5.579H400.33v-5.579h8.835v-25.42c0-1.005,0.03-2.041,0.091-3.106l-6.272,5.247
		c-0.362,0.282-0.719,0.458-1.07,0.528c-0.353,0.071-0.684,0.076-0.995,0.015c-0.313-0.06-0.588-0.166-0.829-0.316
		c-0.241-0.151-0.423-0.317-0.543-0.498l-2.353-3.227l13.299-11.309h6.121v38.086H424.454z"/>
	<path fill="#EF4036" d="M436.244,30.151c0.965-0.201,1.89-0.347,2.774-0.438c0.884-0.09,1.738-0.136,2.563-0.136
		c2.292,0,4.313,0.342,6.062,1.025c1.749,0.684,3.217,1.628,4.403,2.834c1.186,1.207,2.08,2.619,2.684,4.237
		c0.603,1.619,0.904,3.363,0.904,5.232c0,2.313-0.407,4.423-1.221,6.333c-0.814,1.91-1.945,3.543-3.393,4.9
		c-1.448,1.356-3.162,2.407-5.142,3.151c-1.98,0.743-4.137,1.115-6.469,1.115c-1.367,0-2.664-0.141-3.89-0.422
		c-1.227-0.281-2.378-0.658-3.453-1.131s-2.07-1.015-2.985-1.629c-0.915-0.612-1.733-1.261-2.458-1.944l2.292-3.167
		c0.482-0.683,1.116-1.025,1.9-1.025c0.502,0,1.015,0.161,1.538,0.482c0.522,0.322,1.12,0.674,1.794,1.056
		c0.673,0.383,1.467,0.734,2.382,1.056c0.915,0.322,2.016,0.482,3.303,0.482c1.366,0,2.572-0.221,3.618-0.663
		c1.045-0.442,1.915-1.061,2.608-1.854s1.216-1.739,1.568-2.835c0.352-1.096,0.527-2.286,0.527-3.573
		c0-2.372-0.688-4.227-2.065-5.564c-1.377-1.336-3.413-2.005-6.106-2.005c-2.071,0-4.191,0.382-6.363,1.146l-4.644-1.327
		l3.619-21.169h21.53v3.166c0,1.066-0.331,1.93-0.995,2.594c-0.663,0.663-1.789,0.995-3.377,0.995h-11.972L436.244,30.151z"/>
	<path fill="#EF4036" d="M488.231,36.122c0,3.799-0.407,7.101-1.222,9.906s-1.94,5.122-3.377,6.951
		c-1.438,1.829-3.137,3.191-5.097,4.086s-4.076,1.342-6.348,1.342s-4.378-0.447-6.317-1.342c-1.94-0.895-3.624-2.257-5.051-4.086
		c-1.428-1.829-2.544-4.146-3.348-6.951s-1.206-6.106-1.206-9.906c0-3.819,0.402-7.126,1.206-9.921
		c0.804-2.794,1.92-5.106,3.348-6.936c1.427-1.829,3.11-3.191,5.051-4.086c1.939-0.895,4.046-1.342,6.317-1.342
		s4.388,0.447,6.348,1.342s3.659,2.257,5.097,4.086c1.437,1.83,2.563,4.142,3.377,6.936
		C487.824,28.995,488.231,32.302,488.231,36.122z M480.542,36.122c0-3.156-0.231-5.77-0.694-7.84
		c-0.462-2.07-1.08-3.719-1.854-4.946c-0.773-1.226-1.663-2.085-2.668-2.578c-1.006-0.492-2.051-0.739-3.137-0.739
		c-1.065,0-2.096,0.247-3.091,0.739c-0.995,0.493-1.875,1.353-2.639,2.578c-0.765,1.227-1.372,2.875-1.824,4.946
		c-0.452,2.071-0.679,4.684-0.679,7.84c0,3.157,0.227,5.77,0.679,7.84c0.452,2.071,1.06,3.72,1.824,4.945
		c0.764,1.227,1.644,2.086,2.639,2.578c0.995,0.493,2.025,0.739,3.091,0.739c1.086,0,2.131-0.246,3.137-0.739
		c1.005-0.492,1.895-1.352,2.668-2.578c0.774-1.226,1.393-2.874,1.854-4.945C480.311,41.892,480.542,39.278,480.542,36.122z"/>
</g>
</svg>
