<?xml version="1.0" encoding="utf-8"?>
<!-- Generator: Adobe Illustrator 16.2.0, SVG Export Plug-In . SVG Version: 6.00 Build 0)  -->
<!DOCTYPE svg PUBLIC "-//W3C//DTD SVG 1.1//EN" "http://www.w3.org/Graphics/SVG/1.1/DTD/svg11.dtd">
<svg version="1.1" id="Layer_1" xmlns="http://www.w3.org/2000/svg" xmlns:xlink="http://www.w3.org/1999/xlink" x="0px" y="0px"
	 width="500px" height="75px" viewBox="0 0 500 75" enable-background="new 0 0 500 75" xml:space="preserve">
<g>
	<g>
		<path fill="#EF4036" d="M413.466,56.921l9.998-11.287L414.34,12.3l-0.337-1.235l-1.253,0.654l-14.01,7.333l10.169,6.698
			l-5.439,19.884L413.466,56.921z M402.058,19.217l10.06-5.264l-2.855,10.008L402.058,19.217z M413.466,15.491l8.129,29.708
			l-8.129,9.177l-8.13-9.177L413.466,15.491z"/>
		<path fill="#EF4036" d="M437.106,25.989l22.508-11.199l-31.451-5.63l-9.855,9.415l3.796,14.882l9.154,5.5L409.595,65.84
			l42.485-14.725L437.106,25.989z M446.776,45.521l1.444,2.675l-13.352-8.866l7.668-0.925L446.776,45.521z M428.749,10.98
			l25.55,4.572l-18.058,8.983l-3.553-5.96h-11.305L428.749,10.98z M421.938,25.984l-1.459-5.724l11.251,0.001l2.994,5.029
			l-11.504,5.725L421.938,25.984z M424.346,32.339l11.246-5.595l6,10.076l-8.89,1.072L424.346,32.339z M414.591,62.325
			l18.079-22.431l16.013,10.635L414.591,62.325z"/>
		<path fill="#EF4036" d="M477.972,17.7l-24.857,2.029l-12.5,6.756l17.973,31.907l24.872-6.545L477.972,17.7z M473.853,19.93
			l-11.87,8.472l-5.309-7.069L473.853,19.93z M474.342,21.896l-13.131,23.749l1.471-15.424L474.342,21.896z M458.5,54.235
			l-15.424-27.132l11.548-5.361l6.184,8.236L458.5,54.235z M461.122,49.707l15.563-28.147l4.641,28.9l-21.045,5.538L461.122,49.707z
			"/>
	</g>
	<g>
		<rect x="16.541" y="14.647" fill="#FFFFFF" width="2.183" height="43.276"/>
		<polygon fill="#FFFFFF" points="51.134,54.553 33.774,14.647 31.021,14.647 31.021,57.924 33.204,57.924 33.204,18.909 
			50.243,57.744 50.323,57.924 51.975,57.924 69.183,18.704 69.183,57.924 71.366,57.924 71.366,14.647 68.554,14.647 		"/>
		<polygon fill="#FFFFFF" points="102.604,54.553 85.244,14.647 82.49,14.647 82.49,57.924 84.672,57.924 84.672,18.909 
			101.712,57.744 101.792,57.924 103.444,57.924 120.652,18.704 120.652,57.924 122.835,57.924 122.835,14.647 120.022,14.647 		"/>
		<rect x="135.131" y="14.647" fill="#FFFFFF" width="2.183" height="43.276"/>
		<path fill="#FFFFFF" d="M165.057,40.19H178.1v12.024c-0.784,0.978-2.312,1.914-4.543,2.785c-2.306,0.9-5.045,1.356-8.141,1.356
			c-4.36,0-7.913-1.577-10.558-4.687c-2.656-3.125-4.003-7.236-4.003-12.219v-7.035c0-4.75,1.303-8.683,3.87-11.691
			c2.557-2.993,5.986-4.51,10.192-4.51c4.144,0,7.365,1.014,9.574,3.014c2.203,1.997,3.397,4.633,3.55,7.837l0.014,0.286h1.822
			l0.143-0.429l-0.001-0.052c-0.06-3.764-1.459-6.88-4.162-9.263c-2.692-2.373-6.372-3.577-10.94-3.577
			c-4.797,0-8.749,1.736-11.745,5.159c-2.986,3.411-4.5,7.88-4.5,13.285v6.976c0,5.617,1.558,10.249,4.632,13.768
			c3.083,3.53,7.158,5.32,12.111,5.32c3.735,0,6.937-0.565,9.514-1.682c2.587-1.12,4.37-2.342,5.297-3.632l0.056-0.078V37.979
			h-15.226V40.19z"/>
		<path fill="#FFFFFF" d="M219.356,54.253c-0.313-1.02-0.471-2.192-0.471-3.488v-4.016c0-2.731-0.692-5.012-2.055-6.778
			c-1.183-1.529-3.044-2.611-5.542-3.226c2.15-0.695,3.906-1.904,5.232-3.602c1.568-2.009,2.365-4.275,2.365-6.736
			c0-3.81-1.26-6.754-3.747-8.75c-2.467-1.978-6.021-2.981-10.563-2.981h-13.9v43.276h2.183V37.904h12.685
			c3.585,0,6.375,0.796,8.296,2.365c1.9,1.556,2.864,3.755,2.864,6.538v3.898c0,1.489,0.182,2.854,0.541,4.058
			c0.362,1.22,0.916,2.257,1.645,3.087l0.089,0.103h1.99v-1.168l-0.101-0.089C220.168,56.073,219.66,55.252,219.356,54.253z
			 M204.282,35.722h-11.424V16.859h11.717c4.034,0,7.101,0.83,9.117,2.469c1.998,1.622,3.011,4.004,3.011,7.079
			c0,2.633-1.006,4.866-2.991,6.635C211.716,34.82,208.543,35.722,204.282,35.722z"/>
		<path fill="#FFFFFF" d="M241.268,14.647l-16.168,43.276h2.371l4.748-12.75h20.453l4.704,12.555l0.072,0.195h2.37L243.62,14.647
			H241.268z M233.028,42.99l8.821-23.641l0.598-1.816l0.624,1.827l8.789,23.63H233.028z"/>
		<polygon fill="#FFFFFF" points="257.973,16.83 273.507,16.83 273.507,57.924 275.69,57.924 275.69,16.83 291.225,16.83 
			291.225,14.647 257.973,14.647 		"/>
		<rect x="299.27" y="14.647" fill="#FFFFFF" width="2.184" height="43.276"/>
		<path fill="#FFFFFF" d="M328.148,14.032c-5.091,0-9.138,1.742-12.028,5.177c-2.875,3.421-4.334,8.091-4.334,13.881v6.39
			c0,5.813,1.468,10.487,4.364,13.896c2.91,3.426,6.967,5.162,12.057,5.162c5.07,0,9.112-1.737,12.011-5.163
			c2.889-3.411,4.352-8.087,4.352-13.896v-6.39c0-5.789-1.475-10.46-4.382-13.882C337.268,15.773,333.218,14.032,328.148,14.032z
			 M342.387,39.48c0,5.197-1.24,9.359-3.687,12.37c-2.429,2.989-5.96,4.506-10.493,4.506c-4.534,0-8.07-1.521-10.51-4.521
			c-2.454-3.017-3.699-7.174-3.699-12.354v-6.449c0-5.142,1.237-9.279,3.684-12.297c2.432-2.999,5.953-4.52,10.467-4.52
			c4.533,0,8.073,1.521,10.523,4.521c2.465,3.019,3.715,7.155,3.715,12.296V39.48z"/>
		<polygon fill="#FFFFFF" points="382.894,14.647 382.894,53.896 355.888,14.777 355.799,14.647 353.729,14.647 353.729,57.924 
			355.942,57.924 355.942,18.588 382.945,57.793 383.034,57.924 385.076,57.924 385.076,14.647 		"/>
	</g>
</g>
</svg>
